<svg width="17" height="16" viewBox="0 0 17 16" fill="none" xmlns="http://www.w3.org/2000/svg">
<path d="M12.2089 7.60627L5.16513 2.1047C5.14672 2.09021 5.1246 2.08121 5.10131 2.07872C5.07801 2.07624 5.05449 2.08037 5.03344 2.09065C5.0124 2.10093 4.99467 2.11694 4.98231 2.13684C4.96995 2.15673 4.96345 2.17972 4.96356 2.20314V3.41095C4.96356 3.48752 4.9995 3.56095 5.05888 3.60783L10.6839 8.00002L5.05888 12.3922C4.99794 12.4391 4.96356 12.5125 4.96356 12.5891V13.7969C4.96356 13.9016 5.08388 13.9594 5.16513 13.8953L12.2089 8.39377C12.2687 8.34707 12.3172 8.28733 12.3505 8.2191C12.3838 8.15087 12.4011 8.07594 12.4011 8.00002C12.4011 7.92409 12.3838 7.84916 12.3505 7.78093C12.3172 7.7127 12.2687 7.65296 12.2089 7.60627Z" fill="black" fill-opacity="0.45"/>
</svg>
