<svg width="17" height="16" viewBox="0 0 17 16" fill="none" xmlns="http://www.w3.org/2000/svg">
<path d="M8.80103 0.999989C4.9354 0.999989 1.80103 4.13436 1.80103 7.99999C1.80103 11.8656 4.9354 15 8.80103 15C12.6667 15 15.801 11.8656 15.801 7.99999C15.801 4.13436 12.6667 0.999989 8.80103 0.999989ZM8.80103 13.8125C5.59165 13.8125 2.98853 11.2094 2.98853 7.99999C2.98853 4.79061 5.59165 2.18749 8.80103 2.18749C12.0104 2.18749 14.6135 4.79061 14.6135 7.99999C14.6135 11.2094 12.0104 13.8125 8.80103 13.8125Z" fill="black" fill-opacity="0.45"/>
<path d="M8.05103 5.24999C8.05103 5.4489 8.13004 5.63967 8.2707 5.78032C8.41135 5.92097 8.60211 5.99999 8.80103 5.99999C8.99994 5.99999 9.1907 5.92097 9.33136 5.78032C9.47201 5.63967 9.55103 5.4489 9.55103 5.24999C9.55103 5.05108 9.47201 4.86031 9.33136 4.71966C9.1907 4.57901 8.99994 4.49999 8.80103 4.49999C8.60211 4.49999 8.41135 4.57901 8.2707 4.71966C8.13004 4.86031 8.05103 5.05108 8.05103 5.24999ZM9.17603 6.99999H8.42603C8.35728 6.99999 8.30103 7.05624 8.30103 7.12499V11.375C8.30103 11.4437 8.35728 11.5 8.42603 11.5H9.17603C9.24478 11.5 9.30103 11.4437 9.30103 11.375V7.12499C9.30103 7.05624 9.24478 6.99999 9.17603 6.99999Z" fill="black" fill-opacity="0.45"/>
</svg>
