<svg width="17" height="17" viewBox="0 0 17 17" fill="none" xmlns="http://www.w3.org/2000/svg">
<path d="M8.80103 1.49999C4.9354 1.49999 1.80103 4.63436 1.80103 8.49999C1.80103 12.3656 4.9354 15.5 8.80103 15.5C12.6667 15.5 15.801 12.3656 15.801 8.49999C15.801 4.63436 12.6667 1.49999 8.80103 1.49999ZM8.80103 14.3125C5.59165 14.3125 2.98853 11.7094 2.98853 8.49999C2.98853 5.29061 5.59165 2.68749 8.80103 2.68749C12.0104 2.68749 14.6135 5.29061 14.6135 8.49999C14.6135 11.7094 12.0104 14.3125 8.80103 14.3125Z" fill="black" fill-opacity="0.45"/>
<path d="M8.05103 5.74999C8.05103 5.9489 8.13004 6.13967 8.2707 6.28032C8.41135 6.42097 8.60211 6.49999 8.80103 6.49999C8.99994 6.49999 9.1907 6.42097 9.33136 6.28032C9.47201 6.13967 9.55103 5.9489 9.55103 5.74999C9.55103 5.55108 9.47201 5.36031 9.33136 5.21966C9.1907 5.07901 8.99994 4.99999 8.80103 4.99999C8.60211 4.99999 8.41135 5.07901 8.2707 5.21966C8.13004 5.36031 8.05103 5.55108 8.05103 5.74999ZM9.17603 7.49999H8.42603C8.35728 7.49999 8.30103 7.55624 8.30103 7.62499V11.875C8.30103 11.9437 8.35728 12 8.42603 12H9.17603C9.24478 12 9.30103 11.9437 9.30103 11.875V7.62499C9.30103 7.55624 9.24478 7.49999 9.17603 7.49999Z" fill="black" fill-opacity="0.45"/>
</svg>
