<svg width="17" height="16" viewBox="0 0 17 16" fill="none" xmlns="http://www.w3.org/2000/svg">
<path d="M12.2089 7.60626L5.16513 2.10469C5.14672 2.0902 5.1246 2.0812 5.10131 2.07871C5.07801 2.07623 5.05449 2.08036 5.03344 2.09064C5.0124 2.10092 4.99467 2.11693 4.98231 2.13683C4.96995 2.15673 4.96345 2.17971 4.96356 2.20313V3.41095C4.96356 3.48751 4.9995 3.56094 5.05888 3.60782L10.6839 8.00001L5.05888 12.3922C4.99794 12.4391 4.96356 12.5125 4.96356 12.5891V13.7969C4.96356 13.9016 5.08388 13.9594 5.16513 13.8953L12.2089 8.39376C12.2687 8.34706 12.3172 8.28732 12.3505 8.21909C12.3838 8.15086 12.4011 8.07593 12.4011 8.00001C12.4011 7.92408 12.3838 7.84915 12.3505 7.78092C12.3172 7.71269 12.2687 7.65296 12.2089 7.60626Z" fill="black" fill-opacity="0.45"/>
</svg>
