<svg width="17" height="16" viewBox="0 0 17 16" fill="none" xmlns="http://www.w3.org/2000/svg">
<path d="M13.6586 11.9312C13.3638 11.2331 12.9361 10.5989 12.3992 10.0641C11.8639 9.52767 11.2299 9.10001 10.532 8.80469C10.5258 8.80156 10.5195 8.8 10.5133 8.79688C11.4867 8.09375 12.1195 6.94844 12.1195 5.65625C12.1195 3.51562 10.3851 1.78125 8.24452 1.78125C6.10389 1.78125 4.36952 3.51562 4.36952 5.65625C4.36952 6.94844 5.00233 8.09375 5.97577 8.79844C5.96952 8.80156 5.96327 8.80312 5.95702 8.80625C5.25702 9.10156 4.62889 9.525 4.08983 10.0656C3.55344 10.6009 3.12577 11.235 2.83045 11.9328C2.54033 12.616 2.38386 13.3485 2.36952 14.0906C2.3691 14.1073 2.37202 14.1239 2.37812 14.1394C2.38421 14.1549 2.39335 14.1691 2.405 14.181C2.41665 14.193 2.43057 14.2025 2.44595 14.2089C2.46132 14.2154 2.47783 14.2188 2.49452 14.2188H3.43202C3.50077 14.2188 3.55545 14.1641 3.55702 14.0969C3.58827 12.8906 4.07264 11.7609 4.92889 10.9047C5.81483 10.0188 6.99139 9.53125 8.24452 9.53125C9.49764 9.53125 10.6742 10.0188 11.5601 10.9047C12.4164 11.7609 12.9008 12.8906 12.932 14.0969C12.9336 14.1656 12.9883 14.2188 13.057 14.2188H13.9945C14.0112 14.2188 14.0277 14.2154 14.0431 14.2089C14.0585 14.2025 14.0724 14.193 14.084 14.181C14.0957 14.1691 14.1048 14.1549 14.1109 14.1394C14.117 14.1239 14.1199 14.1073 14.1195 14.0906C14.1039 13.3437 13.9492 12.6172 13.6586 11.9312V11.9312ZM8.24452 8.34375C7.52733 8.34375 6.85233 8.06406 6.34452 7.55625C5.8367 7.04844 5.55702 6.37344 5.55702 5.65625C5.55702 4.93906 5.8367 4.26406 6.34452 3.75625C6.85233 3.24844 7.52733 2.96875 8.24452 2.96875C8.9617 2.96875 9.6367 3.24844 10.1445 3.75625C10.6523 4.26406 10.932 4.93906 10.932 5.65625C10.932 6.37344 10.6523 7.04844 10.1445 7.55625C9.6367 8.06406 8.9617 8.34375 8.24452 8.34375Z" fill="black" fill-opacity="0.45"/>
</svg>
