<svg width="17" height="17" viewBox="0 0 17 17" fill="none" xmlns="http://www.w3.org/2000/svg">
<path d="M13.6586 12.4312C13.3638 11.7331 12.9361 11.0989 12.3992 10.5641C11.8639 10.0277 11.2299 9.60001 10.532 9.30469C10.5258 9.30156 10.5195 9.3 10.5133 9.29688C11.4867 8.59375 12.1195 7.44844 12.1195 6.15625C12.1195 4.01562 10.3851 2.28125 8.24452 2.28125C6.10389 2.28125 4.36952 4.01562 4.36952 6.15625C4.36952 7.44844 5.00233 8.59375 5.97577 9.29844C5.96952 9.30156 5.96327 9.30312 5.95702 9.30625C5.25702 9.60156 4.62889 10.025 4.08983 10.5656C3.55344 11.1009 3.12577 11.735 2.83045 12.4328C2.54033 13.116 2.38386 13.8485 2.36952 14.5906C2.3691 14.6073 2.37202 14.6239 2.37812 14.6394C2.38421 14.6549 2.39335 14.6691 2.405 14.681C2.41665 14.693 2.43057 14.7025 2.44595 14.7089C2.46132 14.7154 2.47783 14.7188 2.49452 14.7188H3.43202C3.50077 14.7188 3.55545 14.6641 3.55702 14.5969C3.58827 13.3906 4.07264 12.2609 4.92889 11.4047C5.81483 10.5188 6.99139 10.0312 8.24452 10.0312C9.49764 10.0312 10.6742 10.5188 11.5601 11.4047C12.4164 12.2609 12.9008 13.3906 12.932 14.5969C12.9336 14.6656 12.9883 14.7188 13.057 14.7188H13.9945C14.0112 14.7188 14.0277 14.7154 14.0431 14.7089C14.0585 14.7025 14.0724 14.693 14.084 14.681C14.0957 14.6691 14.1048 14.6549 14.1109 14.6394C14.117 14.6239 14.1199 14.6073 14.1195 14.5906C14.1039 13.8437 13.9492 13.1172 13.6586 12.4312V12.4312ZM8.24452 8.84375C7.52733 8.84375 6.85233 8.56406 6.34452 8.05625C5.8367 7.54844 5.55702 6.87344 5.55702 6.15625C5.55702 5.43906 5.8367 4.76406 6.34452 4.25625C6.85233 3.74844 7.52733 3.46875 8.24452 3.46875C8.9617 3.46875 9.6367 3.74844 10.1445 4.25625C10.6523 4.76406 10.932 5.43906 10.932 6.15625C10.932 6.87344 10.6523 7.54844 10.1445 8.05625C9.6367 8.56406 8.9617 8.84375 8.24452 8.84375Z" fill="black" fill-opacity="0.45"/>
</svg>
